<svg xmlns="http://www.w3.org/2000/svg" xmlns:xlink="http://www.w3.org/1999/xlink" width="1920" zoomAndPan="magnify" viewBox="0 0 1440 809.999993" height="1080" preserveAspectRatio="xMidYMid meet" version="1.0"><defs><g/><clipPath id="3901c04f6f"><path d="M 429.273438 92.765625 L 1010.722656 92.765625 L 1010.722656 674.214844 L 429.273438 674.214844 Z M 429.273438 92.765625 " clip-rule="nonzero"/></clipPath><clipPath id="10502e1a78"><path d="M 720 92.765625 C 559.4375 92.765625 429.273438 222.925781 429.273438 383.488281 C 429.273438 544.050781 559.4375 674.214844 720 674.214844 C 880.5625 674.214844 1010.722656 544.050781 1010.722656 383.488281 C 1010.722656 222.925781 880.5625 92.765625 720 92.765625 Z M 720 92.765625 " clip-rule="nonzero"/></clipPath><clipPath id="75367b0d09"><path d="M 0.273438 0.765625 L 581.722656 0.765625 L 581.722656 582.214844 L 0.273438 582.214844 Z M 0.273438 0.765625 " clip-rule="nonzero"/></clipPath><clipPath id="f0b38b4a05"><path d="M 291 0.765625 C 130.4375 0.765625 0.273438 130.925781 0.273438 291.488281 C 0.273438 452.050781 130.4375 582.214844 291 582.214844 C 451.5625 582.214844 581.722656 452.050781 581.722656 291.488281 C 581.722656 130.925781 451.5625 0.765625 291 0.765625 Z M 291 0.765625 " clip-rule="nonzero"/></clipPath><clipPath id="e78a63df55"><rect x="0" width="582" y="0" height="583"/></clipPath><clipPath id="69a81ad4e6"><rect x="0" width="439" y="0" height="447"/></clipPath></defs><g clip-path="url(#3901c04f6f)"><g clip-path="url(#10502e1a78)"><g transform="matrix(1, 0, 0, 1, 429, 92)"><g clip-path="url(#e78a63df55)"><g clip-path="url(#75367b0d09)"><g clip-path="url(#f0b38b4a05)"><path fill="#323e4a" d="M 0.273438 0.765625 L 581.722656 0.765625 L 581.722656 582.214844 L 0.273438 582.214844 Z M 0.273438 0.765625 " fill-opacity="1" fill-rule="nonzero"/></g></g></g></g></g></g><g transform="matrix(1, 0, 0, 1, 501, 159)"><g clip-path="url(#69a81ad4e6)"><g fill="#f9f9f8" fill-opacity="1"><g transform="translate(0.589376, 361.919373)"><g><path d="M 168.21875 -97.0625 C 168.21875 -86.28125 166.460938 -75.984375 162.953125 -66.171875 C 159.441406 -56.359375 154.535156 -47.328125 148.234375 -39.078125 C 141.929688 -30.828125 134.523438 -23.679688 126.015625 -17.640625 C 117.503906 -11.597656 108.242188 -6.882812 98.234375 -3.5 C 88.234375 -0.125 77.835938 1.5625 67.046875 1.5625 L 3.3125 1.5625 L 3.3125 -32.9375 L 67.046875 -32.9375 C 76.140625 -32.9375 84.679688 -34.625 92.671875 -38 C 100.671875 -41.382812 107.722656 -46.066406 113.828125 -52.046875 C 119.929688 -58.023438 124.707031 -64.972656 128.15625 -72.890625 C 131.601562 -80.816406 133.328125 -89.332031 133.328125 -98.4375 L 133.328125 -250.65625 L 69.1875 -250.65625 L 69.1875 -285.546875 L 168.21875 -285.546875 Z M 93.5625 -212.453125 L 69.1875 -212.453125 L 69.1875 -246.953125 L 128.84375 -246.953125 L 128.84375 -98.4375 C 128.84375 -89.988281 127.21875 -82.0625 123.96875 -74.65625 C 120.71875 -67.25 116.265625 -60.71875 110.609375 -55.0625 C 104.960938 -49.40625 98.398438 -44.984375 90.921875 -41.796875 C 83.453125 -38.617188 75.492188 -37.03125 67.046875 -37.03125 L 3.3125 -37.03125 L 3.3125 -71.53125 L 67.046875 -71.53125 C 71.984375 -71.53125 76.429688 -72.796875 80.390625 -75.328125 C 84.359375 -77.867188 87.546875 -81.1875 89.953125 -85.28125 C 92.359375 -89.375 93.5625 -93.757812 93.5625 -98.4375 Z M 93.5625 -212.453125 "/></g></g></g><g fill="#f9f9f8" fill-opacity="1"><g transform="translate(185.954061, 361.919373)"><g><path d="M 229.21875 -196.28125 C 229.21875 -188.09375 228.144531 -180.164062 226 -172.5 C 223.851562 -164.832031 220.832031 -157.617188 216.9375 -150.859375 C 224.34375 -142.929688 230.15625 -133.707031 234.375 -123.1875 C 238.601562 -112.664062 240.71875 -101.554688 240.71875 -89.859375 C 240.71875 -77.515625 238.410156 -65.914062 233.796875 -55.0625 C 229.179688 -44.207031 222.8125 -34.65625 214.6875 -26.40625 C 206.570312 -18.15625 197.15625 -11.722656 186.4375 -7.109375 C 175.71875 -2.492188 164.1875 -0.1875 151.84375 -0.1875 L 6.046875 -0.1875 L 6.046875 -285.9375 L 139.953125 -285.9375 C 152.296875 -285.9375 163.828125 -283.628906 174.546875 -279.015625 C 185.265625 -274.410156 194.75 -267.976562 203 -259.71875 C 211.25 -251.46875 217.679688 -241.945312 222.296875 -231.15625 C 226.910156 -220.375 229.21875 -208.75 229.21875 -196.28125 Z M 39.953125 -252.03125 L 39.953125 -34.109375 L 151.0625 -34.109375 C 158.59375 -34.109375 165.703125 -35.566406 172.390625 -38.484375 C 179.085938 -41.410156 185.003906 -45.441406 190.140625 -50.578125 C 195.273438 -55.710938 199.300781 -61.625 202.21875 -68.3125 C 205.144531 -75.007812 206.609375 -82.191406 206.609375 -89.859375 C 206.609375 -96.742188 205.40625 -103.304688 203 -109.546875 C 200.601562 -115.785156 197.226562 -121.40625 192.875 -126.40625 C 188.519531 -131.40625 183.445312 -135.398438 177.65625 -138.390625 C 171.875 -141.378906 165.609375 -143.066406 158.859375 -143.453125 L 158.859375 -144.828125 C 164.316406 -146.117188 169.253906 -148.550781 173.671875 -152.125 C 178.085938 -155.695312 181.921875 -159.984375 185.171875 -164.984375 C 188.421875 -169.992188 190.921875 -175.191406 192.671875 -180.578125 C 194.429688 -185.972656 195.3125 -191.207031 195.3125 -196.28125 C 195.3125 -204.070312 193.847656 -211.347656 190.921875 -218.109375 C 187.992188 -224.867188 183.929688 -230.78125 178.734375 -235.84375 C 173.535156 -240.914062 167.585938 -244.878906 160.890625 -247.734375 C 154.203125 -250.597656 147.09375 -252.03125 139.5625 -252.03125 Z M 44.4375 -145.21875 L 139.953125 -145.21875 C 146.960938 -145.21875 153.550781 -146.546875 159.71875 -149.203125 C 165.894531 -151.867188 171.351562 -155.570312 176.09375 -160.3125 C 180.84375 -165.0625 184.550781 -170.488281 187.21875 -176.59375 C 189.882812 -182.695312 191.21875 -189.257812 191.21875 -196.28125 C 191.21875 -203.425781 189.851562 -210.117188 187.125 -216.359375 C 184.394531 -222.597656 180.65625 -228.085938 175.90625 -232.828125 C 171.164062 -237.566406 165.675781 -241.234375 159.4375 -243.828125 C 153.195312 -246.429688 146.570312 -247.671875 139.5625 -247.546875 L 44.4375 -247.546875 Z M 156.328125 -196.671875 C 156.328125 -191.992188 154.703125 -187.960938 151.453125 -184.578125 C 148.203125 -181.203125 144.238281 -179.515625 139.5625 -179.515625 L 76.40625 -179.515625 L 76.40625 -213.625 L 139.5625 -213.625 C 144.238281 -213.625 148.203125 -212 151.453125 -208.75 C 154.703125 -205.5 156.328125 -201.472656 156.328125 -196.671875 Z M 44.4375 -141.125 L 44.4375 -38.59375 L 151.0625 -38.59375 C 158.207031 -38.59375 164.929688 -39.921875 171.234375 -42.578125 C 177.535156 -45.242188 183.054688 -48.914062 187.796875 -53.59375 C 192.546875 -58.28125 196.285156 -63.738281 199.015625 -69.96875 C 201.742188 -76.207031 203.109375 -82.835938 203.109375 -89.859375 C 203.109375 -96.867188 201.742188 -103.492188 199.015625 -109.734375 C 196.285156 -115.972656 192.546875 -121.429688 187.796875 -126.109375 C 183.054688 -130.785156 177.535156 -134.457031 171.234375 -137.125 C 164.929688 -139.789062 158.207031 -141.125 151.0625 -141.125 Z M 168.609375 -89.859375 C 168.609375 -85.179688 166.984375 -81.148438 163.734375 -77.765625 C 160.484375 -74.390625 156.519531 -72.703125 151.84375 -72.703125 L 76.40625 -72.703125 L 76.40625 -107.015625 L 151.84375 -107.015625 C 156.519531 -107.015625 160.484375 -105.320312 163.734375 -101.9375 C 166.984375 -98.5625 168.609375 -94.535156 168.609375 -89.859375 Z M 168.609375 -89.859375 "/></g></g></g></g></g></svg>