<svg xmlns="http://www.w3.org/2000/svg" xmlns:xlink="http://www.w3.org/1999/xlink" width="1920" zoomAndPan="magnify" viewBox="0 0 1440 809.999993" height="1080" preserveAspectRatio="xMidYMid meet" version="1.0"><defs><g/><clipPath id="30eae0ea40"><path d="M 352.425781 60.367188 L 950.964844 60.367188 L 950.964844 658.90625 L 352.425781 658.90625 Z M 352.425781 60.367188 " clip-rule="nonzero"/></clipPath><clipPath id="147edad2d6"><path d="M 651.695312 60.367188 C 486.410156 60.367188 352.425781 194.355469 352.425781 359.636719 C 352.425781 524.917969 486.410156 658.90625 651.695312 658.90625 C 816.976562 658.90625 950.964844 524.917969 950.964844 359.636719 C 950.964844 194.355469 816.976562 60.367188 651.695312 60.367188 Z M 651.695312 60.367188 " clip-rule="nonzero"/></clipPath><clipPath id="ccc5a1e125"><path d="M 0.425781 0.367188 L 598.964844 0.367188 L 598.964844 598.90625 L 0.425781 598.90625 Z M 0.425781 0.367188 " clip-rule="nonzero"/></clipPath><clipPath id="9ab788d0eb"><path d="M 299.695312 0.367188 C 134.410156 0.367188 0.425781 134.355469 0.425781 299.636719 C 0.425781 464.917969 134.410156 598.90625 299.695312 598.90625 C 464.976562 598.90625 598.964844 464.917969 598.964844 299.636719 C 598.964844 134.355469 464.976562 0.367188 299.695312 0.367188 Z M 299.695312 0.367188 " clip-rule="nonzero"/></clipPath><clipPath id="4a9a42a98c"><rect x="0" width="599" y="0" height="599"/></clipPath><clipPath id="6570e7c75c"><rect x="0" width="397" y="0" height="405"/></clipPath></defs><g clip-path="url(#30eae0ea40)"><g clip-path="url(#147edad2d6)"><g transform="matrix(1, 0, 0, 1, 352, 60)"><g clip-path="url(#4a9a42a98c)"><g clip-path="url(#ccc5a1e125)"><g clip-path="url(#9ab788d0eb)"><path fill="#f9f9f8" d="M 0.425781 0.367188 L 598.964844 0.367188 L 598.964844 598.90625 L 0.425781 598.90625 Z M 0.425781 0.367188 " fill-opacity="1" fill-rule="nonzero"/></g></g></g></g></g></g><g transform="matrix(1, 0, 0, 1, 454, 156)"><g clip-path="url(#6570e7c75c)"><g fill="#000000" fill-opacity="1"><g transform="translate(0.178948, 327.920629)"><g><path d="M 152.125 -87.78125 C 152.125 -78.03125 150.535156 -68.71875 147.359375 -59.84375 C 144.191406 -50.96875 139.753906 -42.800781 134.046875 -35.34375 C 128.347656 -27.882812 121.648438 -21.421875 113.953125 -15.953125 C 106.253906 -10.484375 97.878906 -6.222656 88.828125 -3.171875 C 79.785156 -0.117188 70.390625 1.40625 60.640625 1.40625 L 3 1.40625 L 3 -29.796875 L 60.640625 -29.796875 C 68.859375 -29.796875 76.582031 -31.320312 83.8125 -34.375 C 91.039062 -37.425781 97.414062 -41.65625 102.9375 -47.0625 C 108.457031 -52.46875 112.773438 -58.753906 115.890625 -65.921875 C 119.003906 -73.085938 120.5625 -80.785156 120.5625 -89.015625 L 120.5625 -226.6875 L 62.578125 -226.6875 L 62.578125 -258.234375 L 152.125 -258.234375 Z M 84.609375 -192.140625 L 62.578125 -192.140625 L 62.578125 -223.328125 L 116.515625 -223.328125 L 116.515625 -89.015625 C 116.515625 -81.378906 115.046875 -74.210938 112.109375 -67.515625 C 109.171875 -60.816406 105.144531 -54.910156 100.03125 -49.796875 C 94.914062 -44.679688 88.976562 -40.679688 82.21875 -37.796875 C 75.46875 -34.921875 68.273438 -33.484375 60.640625 -33.484375 L 3 -33.484375 L 3 -64.6875 L 60.640625 -64.6875 C 65.097656 -64.6875 69.117188 -65.832031 72.703125 -68.125 C 76.296875 -70.414062 79.175781 -73.410156 81.34375 -77.109375 C 83.519531 -80.816406 84.609375 -84.785156 84.609375 -89.015625 Z M 84.609375 -192.140625 "/></g></g></g><g fill="#000000" fill-opacity="1"><g transform="translate(167.809458, 327.920629)"><g><path d="M 207.296875 -177.5 C 207.296875 -170.101562 206.320312 -162.9375 204.375 -156 C 202.4375 -149.0625 199.707031 -142.539062 196.1875 -136.4375 C 202.882812 -129.269531 208.140625 -120.925781 211.953125 -111.40625 C 215.773438 -101.882812 217.6875 -91.835938 217.6875 -81.265625 C 217.6875 -70.097656 215.597656 -59.609375 211.421875 -49.796875 C 207.253906 -39.984375 201.5 -31.34375 194.15625 -23.875 C 186.8125 -16.414062 178.289062 -10.597656 168.59375 -6.421875 C 158.90625 -2.253906 148.476562 -0.171875 137.3125 -0.171875 L 5.46875 -0.171875 L 5.46875 -258.59375 L 126.5625 -258.59375 C 137.726562 -258.59375 148.15625 -256.503906 157.84375 -252.328125 C 167.539062 -248.160156 176.117188 -242.34375 183.578125 -234.875 C 191.046875 -227.414062 196.863281 -218.804688 201.03125 -209.046875 C 205.207031 -199.296875 207.296875 -188.78125 207.296875 -177.5 Z M 36.140625 -227.921875 L 36.140625 -30.84375 L 136.609375 -30.84375 C 143.421875 -30.84375 149.851562 -32.164062 155.90625 -34.8125 C 161.957031 -37.457031 167.300781 -41.097656 171.9375 -45.734375 C 176.582031 -50.378906 180.226562 -55.726562 182.875 -61.78125 C 185.519531 -67.832031 186.84375 -74.328125 186.84375 -81.265625 C 186.84375 -87.492188 185.753906 -93.425781 183.578125 -99.0625 C 181.410156 -104.707031 178.359375 -109.789062 174.421875 -114.3125 C 170.484375 -118.832031 165.898438 -122.441406 160.671875 -125.140625 C 155.441406 -127.847656 149.769531 -129.378906 143.65625 -129.734375 L 143.65625 -130.96875 C 148.59375 -132.144531 153.054688 -134.347656 157.046875 -137.578125 C 161.046875 -140.804688 164.515625 -144.679688 167.453125 -149.203125 C 170.390625 -153.734375 172.648438 -158.4375 174.234375 -163.3125 C 175.828125 -168.1875 176.625 -172.914062 176.625 -177.5 C 176.625 -184.550781 175.300781 -191.128906 172.65625 -197.234375 C 170.007812 -203.347656 166.335938 -208.695312 161.640625 -213.28125 C 156.941406 -217.863281 151.566406 -221.445312 145.515625 -224.03125 C 139.460938 -226.625 133.023438 -227.921875 126.203125 -227.921875 Z M 40.1875 -131.328125 L 126.5625 -131.328125 C 132.90625 -131.328125 138.867188 -132.53125 144.453125 -134.9375 C 150.035156 -137.34375 154.96875 -140.691406 159.25 -144.984375 C 163.539062 -149.273438 166.890625 -154.179688 169.296875 -159.703125 C 171.710938 -165.222656 172.921875 -171.15625 172.921875 -177.5 C 172.921875 -183.96875 171.6875 -190.019531 169.21875 -195.65625 C 166.75 -201.300781 163.367188 -206.265625 159.078125 -210.546875 C 154.796875 -214.835938 149.832031 -218.15625 144.1875 -220.5 C 138.550781 -222.851562 132.554688 -223.972656 126.203125 -223.859375 L 40.1875 -223.859375 Z M 141.375 -177.859375 C 141.375 -173.628906 139.90625 -169.984375 136.96875 -166.921875 C 134.03125 -163.867188 130.441406 -162.34375 126.203125 -162.34375 L 69.09375 -162.34375 L 69.09375 -193.1875 L 126.203125 -193.1875 C 130.441406 -193.1875 134.03125 -191.71875 136.96875 -188.78125 C 139.90625 -185.84375 141.375 -182.203125 141.375 -177.859375 Z M 40.1875 -127.625 L 40.1875 -34.90625 L 136.609375 -34.90625 C 143.066406 -34.90625 149.144531 -36.109375 154.84375 -38.515625 C 160.550781 -40.921875 165.546875 -44.238281 169.828125 -48.46875 C 174.117188 -52.695312 177.5 -57.628906 179.96875 -63.265625 C 182.4375 -68.910156 183.671875 -74.910156 183.671875 -81.265625 C 183.671875 -87.609375 182.4375 -93.597656 179.96875 -99.234375 C 177.5 -104.878906 174.117188 -109.816406 169.828125 -114.046875 C 165.546875 -118.273438 160.550781 -121.59375 154.84375 -124 C 149.144531 -126.414062 143.066406 -127.625 136.609375 -127.625 Z M 152.46875 -81.265625 C 152.46875 -77.035156 151 -73.390625 148.0625 -70.328125 C 145.125 -67.273438 141.539062 -65.75 137.3125 -65.75 L 69.09375 -65.75 L 69.09375 -96.765625 L 137.3125 -96.765625 C 141.539062 -96.765625 145.125 -95.238281 148.0625 -92.1875 C 151 -89.132812 152.46875 -85.492188 152.46875 -81.265625 Z M 152.46875 -81.265625 "/></g></g></g></g></g></svg>