<svg xmlns="http://www.w3.org/2000/svg" xmlns:xlink="http://www.w3.org/1999/xlink" width="1920" zoomAndPan="magnify" viewBox="0 0 1440 809.999993" height="1080" preserveAspectRatio="xMidYMid meet" version="1.0"><defs><g/><clipPath id="63b44ca937"><path d="M 15 0 L 440 0 L 440 361.921875 L 15 361.921875 Z M 15 0 " clip-rule="nonzero"/></clipPath><clipPath id="d6dd956012"><path d="M 0.480469 249 L 93 249 L 93 341 L 0.480469 341 Z M 0.480469 249 " clip-rule="nonzero"/></clipPath><clipPath id="a62ab2c8e7"><rect x="0" width="549" y="0" height="362"/></clipPath></defs><g transform="matrix(1, 0, 0, 1, 444, 228)"><g clip-path="url(#a62ab2c8e7)"><g clip-path="url(#63b44ca937)"><path stroke-linecap="butt" transform="matrix(0.70719, -0.62257, 0.62257, 0.70719, 43.686486, 340.635342)" fill="none" stroke-linejoin="miter" d="M 45.000167 6.000809 L 464.386573 6.000711 " stroke="#e97b2c" stroke-width="12" stroke-opacity="1" stroke-miterlimit="4"/></g><path stroke-linecap="round" transform="matrix(0.70719, -0.62257, 0.62257, 0.70719, 43.686486, 340.635342)" fill="none" stroke-linejoin="round" d="M 5.998182 6.000479 C 6.000107 -3.940342 14.058852 -12.002688 23.999672 -12.000764 C 33.940492 -11.998839 41.999727 -3.942834 42.000915 6.000726 C 41.99899 15.941547 33.942984 24.000782 23.999424 24.001969 C 14.058604 24.000044 6.002109 15.940927 5.998182 6.000479 " stroke="#e97b2c" stroke-width="12" stroke-opacity="1" stroke-miterlimit="4"/><path stroke-linecap="round" transform="matrix(0.70719, -0.62257, 0.62257, 0.70719, 43.686486, 340.635342)" fill="none" stroke-linejoin="round" d="M 503.385447 5.998301 C 503.386634 15.941861 495.327516 23.998357 485.383957 23.999544 C 475.446248 24.000359 467.383901 15.941614 467.385826 6.000793 C 467.384639 -3.942767 475.443756 -11.999262 485.387316 -12.000449 C 495.325025 -12.001264 503.384632 -3.939407 503.385447 5.998301 " stroke="#e97b2c" stroke-width="12" stroke-opacity="1" stroke-miterlimit="4"/><path stroke-linecap="butt" transform="matrix(-0.690757, 0.640755, -0.640755, -0.690757, 134.688551, 138.108928)" fill="none" stroke-linejoin="miter" d="M 0.00169492 1.499508 L 100.882635 1.498575 " stroke="#e97b2c" stroke-width="3" stroke-opacity="1" stroke-miterlimit="4"/><path stroke-linecap="round" transform="matrix(-0.690757, 0.640755, -0.640755, -0.690757, 134.688551, 138.108928)" fill="none" stroke-linejoin="round" d="M 110.634368 1.502019 C 110.633692 3.98395 108.617631 5.998831 106.13288 6.001195 C 103.647909 5.9977 101.633249 3.987498 101.633704 1.499708 C 101.63134 -0.985043 103.647401 -2.999924 106.135191 -2.999468 C 108.619942 -3.001833 110.634823 -0.985772 110.634368 1.502019 " stroke="#e97b2c" stroke-width="3" stroke-opacity="1" stroke-miterlimit="4"/><path fill="#e97b2c" d="M 101.476562 317.675781 L 104.316406 315.195312 L 106.792969 318.035156 L 103.957031 320.511719 M 107.15625 312.71875 L 109.992188 310.238281 L 112.472656 313.078125 L 109.632812 315.554688 M 112.832031 307.757812 L 115.671875 305.28125 L 118.148438 308.117188 L 115.3125 310.597656 M 118.507812 302.800781 L 121.347656 300.324219 L 123.828125 303.160156 L 120.988281 305.640625 M 124.1875 297.84375 L 127.027344 295.363281 L 129.503906 298.203125 L 126.664062 300.683594 M 129.863281 292.886719 L 132.703125 290.40625 L 135.183594 293.246094 L 132.34375 295.722656 M 135.542969 287.925781 L 138.378906 285.449219 L 140.859375 288.289062 L 138.019531 290.765625 M 141.21875 282.96875 L 144.058594 280.492188 L 146.535156 283.328125 L 143.699219 285.808594 M 146.894531 278.011719 L 149.734375 275.53125 L 152.214844 278.371094 L 149.375 280.851562 M 152.574219 273.054688 L 155.414062 270.574219 L 157.890625 273.414062 L 155.054688 275.894531 M 158.25 268.097656 L 161.089844 265.617188 L 163.570312 268.457031 L 160.730469 270.933594 M 163.929688 263.136719 L 166.765625 260.660156 L 169.246094 263.496094 L 166.40625 265.976562 M 169.605469 258.179688 L 172.445312 255.703125 L 174.921875 258.539062 L 172.085938 261.019531 M 175.285156 253.222656 L 178.121094 250.742188 L 180.601562 253.582031 L 177.761719 256.0625 M 180.960938 248.265625 L 183.800781 245.785156 L 186.277344 248.625 L 183.441406 251.101562 M 186.636719 243.308594 L 189.476562 240.828125 L 191.957031 243.667969 L 189.117188 246.144531 M 192.316406 238.347656 L 195.15625 235.871094 L 197.632812 238.707031 L 194.792969 241.1875 M 197.992188 233.390625 L 200.832031 230.910156 L 203.3125 233.75 L 200.472656 236.230469 M 203.671875 228.433594 L 206.507812 225.953125 L 208.988281 228.792969 L 206.148438 231.273438 M 209.347656 223.476562 L 212.1875 220.996094 L 214.664062 223.835938 L 211.828125 226.3125 M 215.023438 218.515625 L 217.863281 216.039062 L 220.34375 218.878906 L 217.503906 221.355469 M 220.703125 213.558594 L 223.542969 211.082031 L 226.019531 213.917969 L 223.183594 216.398438 M 226.378906 208.601562 L 229.21875 206.121094 L 231.699219 208.960938 L 228.859375 211.441406 M 232.058594 203.644531 L 234.894531 201.164062 L 237.375 204.003906 L 234.535156 206.480469 M 237.734375 198.6875 L 240.574219 196.207031 L 243.050781 199.046875 L 240.214844 201.523438 M 243.414062 193.726562 L 246.25 191.25 L 248.730469 194.085938 L 245.890625 196.566406 M 249.089844 188.769531 L 251.929688 186.292969 L 254.40625 189.128906 L 251.570312 191.609375 M 254.765625 183.8125 L 257.605469 181.332031 L 260.085938 184.171875 L 257.246094 186.652344 M 260.445312 178.855469 L 263.285156 176.375 L 265.761719 179.214844 L 262.921875 181.691406 M 266.121094 173.894531 L 268.960938 171.417969 L 271.441406 174.257812 L 268.601562 176.734375 M 271.800781 168.9375 L 274.636719 166.460938 L 277.117188 169.296875 L 274.277344 171.777344 M 277.476562 163.980469 L 280.316406 161.5 L 282.792969 164.339844 L 279.957031 166.820312 M 283.152344 159.023438 L 285.992188 156.542969 L 288.472656 159.382812 L 285.632812 161.863281 M 288.832031 154.066406 L 291.671875 151.585938 L 294.148438 154.425781 L 291.3125 156.902344 M 294.507812 149.105469 L 297.347656 146.628906 L 299.828125 149.464844 L 296.988281 151.945312 M 300.1875 144.148438 L 303.023438 141.671875 L 305.503906 144.507812 L 302.664062 146.988281 M 305.863281 139.191406 L 308.703125 136.710938 L 311.179688 139.550781 L 308.34375 142.03125 M 311.542969 134.234375 L 314.378906 131.753906 L 316.859375 134.59375 L 314.019531 137.070312 M 317.21875 129.273438 L 320.058594 126.796875 L 322.535156 129.636719 L 319.699219 132.113281 M 322.894531 124.316406 L 325.734375 121.839844 L 328.214844 124.675781 L 325.375 127.15625 M 328.574219 119.359375 L 331.414062 116.878906 L 333.890625 119.71875 L 331.050781 122.199219 M 334.25 114.402344 L 337.089844 111.921875 L 339.570312 114.761719 L 336.730469 117.242188 M 339.929688 109.445312 L 342.765625 106.964844 L 345.246094 109.804688 L 342.40625 112.28125 M 345.605469 104.484375 L 348.445312 102.007812 L 350.921875 104.847656 L 348.085938 107.324219 M 351.28125 99.527344 L 354.121094 97.050781 L 356.601562 99.886719 L 353.761719 102.367188 M 356.960938 94.570312 L 359.800781 92.089844 L 362.277344 94.929688 L 359.441406 97.410156 M 362.636719 89.613281 L 365.476562 87.132812 L 367.957031 89.972656 L 365.117188 92.449219 M 368.316406 84.65625 L 371.152344 82.175781 L 373.632812 85.015625 L 370.792969 87.492188 M 373.992188 79.695312 L 376.832031 77.21875 L 379.308594 80.054688 L 376.472656 82.535156 M 379.671875 74.738281 L 380.671875 73.863281 L 383.152344 76.703125 L 382.148438 77.578125 " fill-opacity="1" fill-rule="nonzero"/><path fill="#e97b2c" d="M 144.328125 306.914062 L 152.800781 299.429688 L 155.292969 302.253906 L 146.820312 309.738281 M 155.625 296.933594 L 164.097656 289.449219 L 166.59375 292.273438 L 158.121094 299.757812 M 166.921875 286.953125 L 175.394531 279.46875 L 177.890625 282.292969 L 169.417969 289.777344 M 178.21875 276.972656 L 186.695312 269.488281 L 189.1875 272.3125 L 180.714844 279.796875 M 189.519531 266.992188 L 197.992188 259.507812 L 200.488281 262.332031 L 192.011719 269.816406 M 200.816406 257.011719 L 209.289062 249.527344 L 211.785156 252.351562 L 203.3125 259.835938 M 212.113281 247.03125 L 220.585938 239.546875 L 223.082031 242.371094 L 214.609375 249.855469 M 223.410156 237.050781 L 231.886719 229.566406 L 234.378906 232.390625 L 225.90625 239.875 M 234.710938 227.070312 L 243.183594 219.585938 L 245.679688 222.410156 L 237.203125 229.894531 M 246.007812 217.089844 L 254.480469 209.605469 L 256.976562 212.429688 L 248.503906 219.914062 M 257.304688 207.109375 L 265.777344 199.625 L 268.273438 202.449219 L 259.800781 209.933594 M 268.605469 197.128906 L 277.078125 189.644531 L 279.574219 192.46875 L 271.097656 199.953125 M 279.902344 187.148438 L 288.375 179.664062 L 290.871094 182.488281 L 282.398438 189.972656 M 291.199219 177.167969 L 299.671875 169.683594 L 302.167969 172.507812 L 293.695312 179.992188 M 302.496094 167.1875 L 310.972656 159.703125 L 313.464844 162.527344 L 304.992188 170.011719 M 313.796875 157.207031 L 322.269531 149.722656 L 324.765625 152.546875 L 316.289062 160.03125 M 325.09375 147.226562 L 333.566406 139.742188 L 336.0625 142.566406 L 327.589844 150.050781 M 336.390625 137.246094 L 344.863281 129.761719 L 347.359375 132.585938 L 338.886719 140.070312 M 347.6875 127.265625 L 356.164062 119.78125 L 358.65625 122.605469 L 350.183594 130.089844 M 358.988281 117.285156 L 367.460938 109.800781 L 369.957031 112.625 L 361.484375 120.109375 " fill-opacity="1" fill-rule="nonzero"/><path stroke-linecap="round" transform="matrix(0.706122, -0.623782, 0.623782, 0.706122, 133.734412, 316.271359)" fill-opacity="1" fill="#e97b2c" fill-rule="nonzero" stroke-linejoin="round" d="M 1.999222 2.001381 C 1.999691 -1.311858 4.685243 -4.001224 7.998481 -4.000755 C 11.31172 -4.000286 14.001086 -1.314735 14.000617 1.998503 C 14.000148 5.311742 11.314597 8.001108 8.001358 8.000639 C 4.68812 8.00017 1.998753 5.314619 1.999222 2.001381 " stroke="#e97b2c" stroke-width="4" stroke-opacity="1" stroke-miterlimit="4"/><path stroke-linecap="round" transform="matrix(0.706122, -0.623782, 0.623782, 0.706122, 133.734412, 316.271359)" fill-opacity="1" fill="#e97b2c" fill-rule="nonzero" stroke-linejoin="round" d="M 347.577457 1.999897 C 347.580096 5.31588 344.894182 7.999394 341.580944 7.998925 C 338.26496 8.001564 335.578339 5.312905 335.578808 1.999667 C 335.579277 -1.313572 338.267935 -4.000193 341.581174 -3.999724 C 344.894412 -3.999255 347.577926 -1.313342 347.577457 1.999897 " stroke="#e97b2c" stroke-width="4" stroke-opacity="1" stroke-miterlimit="4"/><g clip-path="url(#d6dd956012)"><path stroke-linecap="butt" transform="matrix(-0.686254, 0.645575, -0.645575, -0.686254, 77.171289, 266.11687)" fill="none" stroke-linejoin="miter" d="M -0.00128187 1.501054 L 92.437986 1.502109 " stroke="#e97b2c" stroke-width="3" stroke-opacity="1" stroke-miterlimit="4"/></g><path stroke-linecap="round" transform="matrix(-0.686254, 0.645575, -0.645575, -0.686254, 77.171289, 266.11687)" fill="none" stroke-linejoin="round" d="M 102.190147 1.500476 C 102.186837 3.984825 100.171819 5.999746 97.69049 5.999277 C 95.2033 5.998986 93.188379 3.983968 93.188849 1.502639 C 93.189139 -0.98455 95.204157 -2.999472 97.688327 -3.002022 C 100.172676 -2.998712 102.187597 -0.983693 102.190147 1.500476 " stroke="#e97b2c" stroke-width="3" stroke-opacity="1" stroke-miterlimit="4"/><path fill="#e97b2c" d="M 60.867188 276.359375 L 63.738281 273.921875 L 66.179688 276.792969 L 63.304688 279.234375 M 66.613281 271.480469 L 69.484375 269.042969 L 71.925781 271.914062 L 69.050781 274.355469 M 72.359375 266.601562 L 75.230469 264.164062 L 77.667969 267.035156 L 74.796875 269.476562 M 78.101562 261.726562 L 80.976562 259.285156 L 83.414062 262.160156 L 80.542969 264.597656 M 83.847656 256.847656 L 86.722656 254.40625 L 89.160156 257.28125 L 86.289062 259.71875 M 89.59375 251.96875 L 92.46875 249.527344 L 94.90625 252.402344 L 92.035156 254.839844 M 95.339844 247.089844 L 98.214844 244.648438 L 100.652344 247.523438 L 97.78125 249.960938 M 101.085938 242.210938 L 103.957031 239.769531 L 106.398438 242.644531 L 103.527344 245.082031 M 106.832031 237.332031 L 109.703125 234.894531 L 112.144531 237.765625 L 109.269531 240.203125 M 112.578125 232.453125 L 115.449219 230.015625 L 117.890625 232.886719 L 115.015625 235.328125 M 118.324219 227.574219 L 121.195312 225.136719 L 123.636719 228.007812 L 120.761719 230.449219 M 124.070312 222.695312 L 126.941406 220.257812 L 129.382812 223.128906 L 126.507812 225.570312 M 129.816406 217.816406 L 132.6875 215.378906 L 135.125 218.25 L 132.253906 220.691406 M 135.558594 212.9375 L 138.433594 210.5 L 140.871094 213.371094 L 138 215.8125 M 141.304688 208.0625 L 144.179688 205.621094 L 146.617188 208.496094 L 143.746094 210.933594 M 147.050781 203.183594 L 149.925781 200.742188 L 152.363281 203.617188 L 149.492188 206.054688 M 152.796875 198.304688 L 155.671875 195.863281 L 158.109375 198.738281 L 155.238281 201.175781 M 158.542969 193.425781 L 161.417969 190.984375 L 163.855469 193.859375 L 160.984375 196.296875 M 164.289062 188.546875 L 167.160156 186.105469 L 169.601562 188.980469 L 166.726562 191.417969 M 170.035156 183.667969 L 172.90625 181.230469 L 175.347656 184.101562 L 172.472656 186.539062 M 175.78125 178.789062 L 178.652344 176.351562 L 181.09375 179.222656 L 178.21875 181.660156 M 181.527344 173.910156 L 184.398438 171.472656 L 186.839844 174.34375 L 183.964844 176.785156 M 187.273438 169.03125 L 190.144531 166.59375 L 192.582031 169.464844 L 189.710938 171.90625 M 193.015625 164.152344 L 195.890625 161.714844 L 198.328125 164.585938 L 195.457031 167.027344 M 198.761719 159.273438 L 201.636719 156.835938 L 204.074219 159.707031 L 201.203125 162.148438 M 204.507812 154.394531 L 207.382812 151.957031 L 209.820312 154.828125 L 206.949219 157.269531 M 210.253906 149.519531 L 213.128906 147.078125 L 215.566406 149.953125 L 212.695312 152.390625 M 216 144.640625 L 218.875 142.199219 L 221.3125 145.074219 L 218.441406 147.511719 M 221.746094 139.761719 L 224.617188 137.320312 L 227.058594 140.195312 L 224.183594 142.632812 M 227.492188 134.882812 L 230.363281 132.441406 L 232.804688 135.316406 L 229.929688 137.753906 M 233.238281 130.003906 L 236.109375 127.5625 L 238.550781 130.4375 L 235.675781 132.875 M 238.984375 125.125 L 241.855469 122.6875 L 244.296875 125.558594 L 241.421875 127.996094 M 244.730469 120.246094 L 247.601562 117.808594 L 250.039062 120.679688 L 247.167969 123.121094 M 250.472656 115.367188 L 253.347656 112.929688 L 255.785156 115.800781 L 252.914062 118.242188 M 256.21875 110.488281 L 259.09375 108.050781 L 261.53125 110.921875 L 258.660156 113.363281 M 261.964844 105.609375 L 264.839844 103.171875 L 267.277344 106.042969 L 264.40625 108.484375 M 267.710938 100.730469 L 270.585938 98.292969 L 273.023438 101.164062 L 270.152344 103.605469 M 273.457031 95.855469 L 276.332031 93.414062 L 278.769531 96.289062 L 275.898438 98.726562 M 279.203125 90.976562 L 282.074219 88.535156 L 284.515625 91.410156 L 281.640625 93.847656 M 284.949219 86.097656 L 287.820312 83.65625 L 290.261719 86.53125 L 287.386719 88.96875 M 290.695312 81.21875 L 293.566406 78.777344 L 296.007812 81.652344 L 293.132812 84.089844 M 296.441406 76.339844 L 299.3125 73.898438 L 301.753906 76.773438 L 298.878906 79.210938 M 302.1875 71.460938 L 305.058594 69.023438 L 307.496094 71.894531 L 304.625 74.332031 M 307.929688 66.582031 L 310.804688 64.144531 L 313.242188 67.015625 L 310.371094 69.457031 M 313.675781 61.703125 L 316.550781 59.265625 L 318.988281 62.136719 L 316.117188 64.578125 M 319.421875 56.824219 L 322.296875 54.386719 L 324.734375 57.257812 L 321.863281 59.699219 M 325.167969 51.945312 L 328.042969 49.507812 L 330.480469 52.378906 L 327.609375 54.820312 M 330.914062 47.066406 L 333.789062 44.628906 L 336.226562 47.5 L 333.355469 49.941406 M 336.660156 42.1875 L 339.53125 39.75 L 341.972656 42.621094 L 339.097656 45.0625 M 342.40625 37.3125 L 345.277344 34.871094 L 347.71875 37.746094 L 344.84375 40.183594 M 348.152344 32.433594 L 351.023438 29.992188 L 353.464844 32.867188 L 350.589844 35.304688 M 353.898438 27.554688 L 356.769531 25.113281 L 359.210938 27.988281 L 356.335938 30.425781 M 359.644531 22.675781 L 362.515625 20.234375 L 364.957031 23.109375 L 362.082031 25.546875 M 365.386719 17.796875 L 368.261719 15.355469 L 370.699219 18.230469 L 367.828125 20.667969 " fill-opacity="1" fill-rule="nonzero"/><path stroke-linecap="round" transform="matrix(0.718213, -0.609821, 0.609821, 0.718213, 60.866172, 276.36058)" fill-opacity="1" fill="#e97b2c" fill-rule="nonzero" stroke-linejoin="round" d="M 443.189313 2.000449 C 443.19219 5.315147 440.505189 7.999331 437.190492 8.002207 C 433.875317 7.99924 431.191133 5.312239 431.191417 2.000225 C 431.191701 -1.311789 433.875541 -3.998656 437.190239 -4.001533 C 440.505413 -3.998565 443.192281 -1.314725 443.189313 2.000449 " stroke="#e97b2c" stroke-width="4" stroke-opacity="1" stroke-miterlimit="4"/><g fill="#f9f9f8" fill-opacity="1"><g transform="translate(56.277403, 278.208933)"><g><path d="M 111.859375 -64.546875 C 111.859375 -57.378906 110.691406 -50.53125 108.359375 -44 C 106.023438 -37.476562 102.757812 -31.472656 98.5625 -25.984375 C 94.375 -20.492188 89.453125 -15.738281 83.796875 -11.71875 C 78.140625 -7.707031 71.984375 -4.578125 65.328125 -2.328125 C 58.671875 -0.0859375 51.757812 1.03125 44.59375 1.03125 L 2.203125 1.03125 L 2.203125 -21.90625 L 44.59375 -21.90625 C 50.632812 -21.90625 56.3125 -23.023438 61.625 -25.265625 C 66.945312 -27.515625 71.632812 -30.625 75.6875 -34.59375 C 79.75 -38.570312 82.925781 -43.195312 85.21875 -48.46875 C 87.507812 -53.75 88.65625 -59.410156 88.65625 -65.453125 L 88.65625 -166.6875 L 46.015625 -166.6875 L 46.015625 -189.890625 L 111.859375 -189.890625 Z M 62.21875 -141.28125 L 46.015625 -141.28125 L 46.015625 -164.21875 L 85.671875 -164.21875 L 85.671875 -65.453125 C 85.671875 -59.835938 84.585938 -54.566406 82.421875 -49.640625 C 80.265625 -44.710938 77.304688 -40.367188 73.546875 -36.609375 C 69.796875 -32.859375 65.4375 -29.921875 60.46875 -27.796875 C 55.5 -25.679688 50.207031 -24.625 44.59375 -24.625 L 2.203125 -24.625 L 2.203125 -47.5625 L 44.59375 -47.5625 C 47.875 -47.5625 50.832031 -48.40625 53.46875 -50.09375 C 56.101562 -51.78125 58.21875 -53.984375 59.8125 -56.703125 C 61.414062 -59.429688 62.21875 -62.347656 62.21875 -65.453125 Z M 62.21875 -141.28125 "/></g></g></g><g fill="#f9f9f8" fill-opacity="1"><g transform="translate(179.545457, 278.208933)"><g><path d="M 152.421875 -130.515625 C 152.421875 -125.078125 151.707031 -119.804688 150.28125 -114.703125 C 148.863281 -109.609375 146.859375 -104.816406 144.265625 -100.328125 C 149.191406 -95.054688 153.054688 -88.921875 155.859375 -81.921875 C 158.671875 -74.921875 160.078125 -67.53125 160.078125 -59.75 C 160.078125 -51.539062 158.539062 -43.828125 155.46875 -36.609375 C 152.40625 -29.398438 148.171875 -23.050781 142.765625 -17.5625 C 137.367188 -12.070312 131.101562 -7.789062 123.96875 -4.71875 C 116.84375 -1.65625 109.175781 -0.125 100.96875 -0.125 L 4.015625 -0.125 L 4.015625 -190.140625 L 93.0625 -190.140625 C 101.269531 -190.140625 108.9375 -188.601562 116.0625 -185.53125 C 123.195312 -182.46875 129.503906 -178.191406 134.984375 -172.703125 C 140.472656 -167.222656 144.75 -160.894531 147.8125 -153.71875 C 150.882812 -146.550781 152.421875 -138.816406 152.421875 -130.515625 Z M 26.578125 -167.59375 L 26.578125 -22.6875 L 100.453125 -22.6875 C 105.460938 -22.6875 110.191406 -23.65625 114.640625 -25.59375 C 119.097656 -27.539062 123.03125 -30.21875 126.4375 -33.625 C 129.851562 -37.039062 132.53125 -40.972656 134.46875 -45.421875 C 136.414062 -49.878906 137.390625 -54.65625 137.390625 -59.75 C 137.390625 -64.332031 136.585938 -68.695312 134.984375 -72.84375 C 133.390625 -76.988281 131.144531 -80.722656 128.25 -84.046875 C 125.351562 -87.378906 121.984375 -90.039062 118.140625 -92.03125 C 114.296875 -94.019531 110.128906 -95.140625 105.640625 -95.390625 L 105.640625 -96.296875 C 109.265625 -97.160156 112.546875 -98.78125 115.484375 -101.15625 C 118.421875 -103.539062 120.96875 -106.394531 123.125 -109.71875 C 125.289062 -113.039062 126.957031 -116.492188 128.125 -120.078125 C 129.289062 -123.671875 129.875 -127.148438 129.875 -130.515625 C 129.875 -135.703125 128.898438 -140.539062 126.953125 -145.03125 C 125.015625 -149.53125 122.316406 -153.460938 118.859375 -156.828125 C 115.398438 -160.203125 111.445312 -162.835938 107 -164.734375 C 102.550781 -166.640625 97.820312 -167.59375 92.8125 -167.59375 Z M 29.546875 -96.5625 L 93.0625 -96.5625 C 97.726562 -96.5625 102.113281 -97.445312 106.21875 -99.21875 C 110.320312 -100.988281 113.953125 -103.453125 117.109375 -106.609375 C 120.265625 -109.765625 122.726562 -113.375 124.5 -117.4375 C 126.269531 -121.5 127.15625 -125.859375 127.15625 -130.515625 C 127.15625 -135.273438 126.242188 -139.726562 124.421875 -143.875 C 122.609375 -148.019531 120.125 -151.671875 116.96875 -154.828125 C 113.820312 -157.984375 110.171875 -160.421875 106.015625 -162.140625 C 101.867188 -163.867188 97.46875 -164.691406 92.8125 -164.609375 L 29.546875 -164.609375 Z M 103.953125 -130.78125 C 103.953125 -127.664062 102.867188 -124.984375 100.703125 -122.734375 C 98.546875 -120.492188 95.914062 -119.375 92.8125 -119.375 L 50.8125 -119.375 L 50.8125 -142.0625 L 92.8125 -142.0625 C 95.914062 -142.0625 98.546875 -140.976562 100.703125 -138.8125 C 102.867188 -136.65625 103.953125 -133.976562 103.953125 -130.78125 Z M 29.546875 -93.84375 L 29.546875 -25.65625 L 100.453125 -25.65625 C 105.203125 -25.65625 109.671875 -26.539062 113.859375 -28.3125 C 118.054688 -30.09375 121.726562 -32.535156 124.875 -35.640625 C 128.03125 -38.753906 130.515625 -42.382812 132.328125 -46.53125 C 134.148438 -50.675781 135.0625 -55.082031 135.0625 -59.75 C 135.0625 -64.414062 134.148438 -68.820312 132.328125 -72.96875 C 130.515625 -77.113281 128.03125 -80.742188 124.875 -83.859375 C 121.726562 -86.972656 118.054688 -89.414062 113.859375 -91.1875 C 109.671875 -92.957031 105.203125 -93.84375 100.453125 -93.84375 Z M 112.125 -59.75 C 112.125 -56.644531 111.039062 -53.96875 108.875 -51.71875 C 106.71875 -49.46875 104.082031 -48.34375 100.96875 -48.34375 L 50.8125 -48.34375 L 50.8125 -71.15625 L 100.96875 -71.15625 C 104.082031 -71.15625 106.71875 -70.03125 108.875 -67.78125 C 111.039062 -65.539062 112.125 -62.863281 112.125 -59.75 Z M 112.125 -59.75 "/></g></g><g transform="translate(346.754488, 278.208933)"><g><path d="M 100.84375 -94.625 L 100.84375 -118.34375 L 195.203125 -118.34375 L 195.203125 -92.03125 C 195.203125 -78.03125 192.929688 -65.304688 188.390625 -53.859375 C 183.859375 -42.410156 177.421875 -32.515625 169.078125 -24.171875 C 160.742188 -15.835938 150.828125 -9.421875 139.328125 -4.921875 C 127.835938 -0.429688 115.09375 1.8125 101.09375 1.8125 C 90.46875 1.8125 80.335938 0.191406 70.703125 -3.046875 C 61.066406 -6.285156 52.226562 -10.882812 44.1875 -16.84375 C 36.15625 -22.8125 29.179688 -29.8125 23.265625 -37.84375 C 17.347656 -45.882812 12.769531 -54.742188 9.53125 -64.421875 C 6.289062 -74.097656 4.671875 -84.25 4.671875 -94.875 C 4.671875 -105.59375 6.289062 -115.769531 9.53125 -125.40625 C 12.769531 -135.039062 17.347656 -143.894531 23.265625 -151.96875 C 29.179688 -160.050781 36.15625 -167.070312 44.1875 -173.03125 C 52.226562 -179 61.085938 -183.601562 70.765625 -186.84375 C 80.441406 -190.082031 90.640625 -191.703125 101.359375 -191.703125 C 110.953125 -191.703125 120.085938 -190.363281 128.765625 -187.6875 C 137.453125 -185.007812 145.597656 -181.335938 153.203125 -176.671875 L 141.546875 -156.453125 C 135.921875 -160.078125 129.671875 -162.945312 122.796875 -165.0625 C 115.929688 -167.175781 108.785156 -168.234375 101.359375 -168.234375 C 91.160156 -168.234375 81.632812 -166.332031 72.78125 -162.53125 C 63.925781 -158.726562 56.148438 -153.457031 49.453125 -146.71875 C 42.753906 -139.976562 37.523438 -132.179688 33.765625 -123.328125 C 30.003906 -114.472656 28.125 -104.988281 28.125 -94.875 C 28.125 -84.769531 30.003906 -75.304688 33.765625 -66.484375 C 37.523438 -57.671875 42.707031 -49.914062 49.3125 -43.21875 C 55.925781 -36.53125 63.640625 -31.285156 72.453125 -27.484375 C 81.265625 -23.679688 90.726562 -21.734375 100.84375 -21.640625 C 108.789062 -21.554688 116.4375 -22.722656 123.78125 -25.140625 C 131.125 -27.566406 137.863281 -31.003906 144 -35.453125 C 150.132812 -39.898438 155.488281 -45.191406 160.0625 -51.328125 C 164.644531 -57.460938 168.210938 -64.179688 170.765625 -71.484375 C 173.316406 -78.785156 174.632812 -86.5 174.71875 -94.625 Z M 101.359375 -165.265625 C 108.535156 -165.265625 115.425781 -164.25 122.03125 -162.21875 C 128.644531 -160.1875 134.71875 -157.351562 140.25 -153.71875 L 128.96875 -133.25 C 124.988281 -135.925781 120.644531 -138.0625 115.9375 -139.65625 C 111.226562 -141.257812 106.367188 -142.0625 101.359375 -142.0625 C 94.878906 -142.0625 88.765625 -140.847656 83.015625 -138.421875 C 77.273438 -136.003906 72.242188 -132.632812 67.921875 -128.3125 C 63.597656 -124 60.203125 -118.988281 57.734375 -113.28125 C 55.273438 -107.582031 54.046875 -101.445312 54.046875 -94.875 C 54.046875 -88.394531 55.253906 -82.300781 57.671875 -76.59375 C 60.097656 -70.894531 63.46875 -65.882812 67.78125 -61.5625 C 72.101562 -57.25 77.113281 -53.859375 82.8125 -51.390625 C 88.519531 -48.929688 94.613281 -47.65625 101.09375 -47.5625 C 108.957031 -47.5625 116.410156 -49.441406 123.453125 -53.203125 C 130.492188 -56.960938 136.175781 -62.082031 140.5 -68.5625 L 100.84375 -68.5625 L 100.84375 -92.03125 L 171.734375 -92.03125 C 171.390625 -82.695312 169.273438 -73.925781 165.390625 -65.71875 C 161.503906 -57.507812 156.316406 -50.3125 149.828125 -44.125 C 143.347656 -37.945312 135.914062 -33.109375 127.53125 -29.609375 C 119.15625 -26.117188 110.257812 -24.375 100.84375 -24.375 C 91.164062 -24.457031 82.09375 -26.332031 73.625 -30 C 65.15625 -33.675781 57.722656 -38.734375 51.328125 -45.171875 C 44.929688 -51.609375 39.914062 -59.082031 36.28125 -67.59375 C 32.65625 -76.101562 30.84375 -85.195312 30.84375 -94.875 C 30.84375 -104.644531 32.65625 -113.785156 36.28125 -122.296875 C 39.914062 -130.804688 44.972656 -138.28125 51.453125 -144.71875 C 57.929688 -151.15625 65.425781 -156.1875 73.9375 -159.8125 C 82.457031 -163.445312 91.597656 -165.265625 101.359375 -165.265625 Z M 101.359375 -165.265625 "/></g></g></g><path stroke-linecap="butt" transform="matrix(0.71262, -0.616349, 0.616349, 0.71262, 183.981479, 301.020111)" fill="none" stroke-linejoin="miter" d="M 14.999724 1.998494 L 97.500455 2.000666 " stroke="#e97b2c" stroke-width="4" stroke-opacity="1" stroke-miterlimit="4"/><path stroke-linecap="round" transform="matrix(0.71262, -0.616349, 0.616349, 0.71262, 183.981479, 301.020111)" fill="none" stroke-linejoin="round" d="M 2.002163 1.999463 C 2.00029 -1.313004 4.68616 -4.000105 8.001763 -3.999265 C 11.314231 -4.001138 14.001332 -1.315268 14.000492 2.000335 C 13.999652 5.315939 11.316495 7.999904 8.000891 7.999064 C 4.685288 7.998224 2.001323 5.315067 2.002163 1.999463 " stroke="#e97b2c" stroke-width="4" stroke-opacity="1" stroke-miterlimit="4"/><path stroke-linecap="round" transform="matrix(0.71262, -0.616349, 0.616349, 0.71262, 183.981479, 301.020111)" fill-opacity="1" fill="#e97b2c" fill-rule="nonzero" stroke-linejoin="round" d="M 110.503865 1.999273 C 110.503025 5.314876 107.814019 7.999265 104.501552 8.001138 C 101.185948 8.000298 98.50156 5.311292 98.502823 2.001537 C 98.503663 -1.314067 101.189533 -4.001168 104.499288 -3.999904 C 107.814892 -3.999064 110.501993 -1.313194 110.503865 1.999273 " stroke="#e97b2c" stroke-width="4" stroke-opacity="1" stroke-miterlimit="4"/><path stroke-linecap="butt" transform="matrix(-0.705729, 0.624226, -0.624226, -0.705729, 383.066449, 130.066819)" fill="none" stroke-linejoin="miter" d="M 15.00181 2.000504 L 80.590917 2.001989 " stroke="#e97b2c" stroke-width="4" stroke-opacity="1" stroke-miterlimit="4"/><path stroke-linecap="round" transform="matrix(-0.705729, 0.624226, -0.624226, -0.705729, 383.066449, 130.066819)" fill="none" stroke-linejoin="round" d="M 1.999195 2.001371 C 1.998646 -1.314614 4.685891 -4.002287 7.999129 -3.999731 C 11.315113 -4.00028 13.999682 -1.315781 14.000231 2.000203 C 13.997674 5.313441 11.313176 7.998009 8.000297 8.001305 C 4.687059 7.998748 1.999385 5.311503 1.999195 2.001371 " stroke="#e97b2c" stroke-width="4" stroke-opacity="1" stroke-miterlimit="4"/><path stroke-linecap="butt" transform="matrix(0.75671, -0.561339, 0.561339, 0.75671, 391.487074, 90.382943)" fill="none" stroke-linejoin="miter" d="M 15.000271 2.000584 L 54.54737 2.000749 " stroke="#e97b2c" stroke-width="4" stroke-opacity="1" stroke-miterlimit="4"/><path stroke-linecap="round" transform="matrix(0.75671, -0.561339, 0.561339, 0.75671, 391.487074, 90.382943)" fill="none" stroke-linejoin="round" d="M 2.001714 2.000945 C 1.999202 -1.315018 4.686629 -3.998349 8.000122 -3.997531 C 11.316085 -4.000043 13.999416 -1.312616 13.998598 2.000877 C 13.99778 5.314369 11.313683 8.000171 8.00019 7.999353 C 4.686697 7.998535 2.000896 5.314437 2.001714 2.000945 " stroke="#e97b2c" stroke-width="4" stroke-opacity="1" stroke-miterlimit="4"/><path stroke-linecap="round" transform="matrix(0.75671, -0.561339, 0.561339, 0.75671, 391.487074, 90.382943)" fill-opacity="1" fill="#e97b2c" fill-rule="nonzero" stroke-linejoin="round" d="M 67.551727 1.999529 C 67.550909 5.313022 64.861012 7.999683 61.547519 7.998865 C 58.237357 8.000517 55.548225 5.31395 55.549043 2.000457 C 55.549861 -1.313036 58.233959 -3.998837 61.549921 -4.001349 C 64.863414 -4.000531 67.546745 -1.313104 67.551727 1.999529 " stroke="#e97b2c" stroke-width="4" stroke-opacity="1" stroke-miterlimit="4"/></g></g></svg>