<svg xmlns="http://www.w3.org/2000/svg" xmlns:xlink="http://www.w3.org/1999/xlink" width="1920" zoomAndPan="magnify" viewBox="0 0 1440 809.999993" height="1080" preserveAspectRatio="xMidYMid meet" version="1.0"><defs><g/><clipPath id="0521cfd928"><path d="M 15 0.359375 L 445 0.359375 L 445 366.121094 L 15 366.121094 Z M 15 0.359375 " clip-rule="nonzero"/></clipPath><clipPath id="b5fb0aebd8"><path d="M 0.761719 251 L 94 251 L 94 345 L 0.761719 345 Z M 0.761719 251 " clip-rule="nonzero"/></clipPath><clipPath id="88e4088195"><rect x="0" width="555" y="0" height="367"/></clipPath></defs><g transform="matrix(1, 0, 0, 1, 449, 231)"><g clip-path="url(#88e4088195)"><g clip-path="url(#0521cfd928)"><path stroke-linecap="butt" transform="matrix(0.714485, -0.628987, 0.628987, 0.714485, 44.416193, 344.467726)" fill="none" stroke-linejoin="miter" d="M 45.002103 6.000455 L 464.388027 5.999479 " stroke="#e97b2c" stroke-width="12" stroke-opacity="1" stroke-miterlimit="4"/></g><path stroke-linecap="round" transform="matrix(0.714485, -0.628987, 0.628987, 0.714485, 44.416193, 344.467726)" fill="none" stroke-linejoin="round" d="M 5.999804 5.999482 C 5.998112 -3.941416 14.059734 -11.999618 24.000632 -12.00131 C 33.938818 -11.999922 41.999732 -3.94138 42.001424 5.999517 C 42.000405 15.943495 33.941494 23.998617 24.000596 24.000309 C 14.059698 24.002002 6.001497 15.940379 5.999804 5.999482 " stroke="#e97b2c" stroke-width="12" stroke-opacity="1" stroke-miterlimit="4"/><path stroke-linecap="round" transform="matrix(0.714485, -0.628987, 0.628987, 0.714485, 44.416193, 344.467726)" fill="none" stroke-linejoin="round" d="M 503.387246 5.997741 C 503.386227 15.941718 495.330396 23.999552 485.386418 23.998533 C 475.445521 24.000225 467.387319 15.938603 467.388706 6.000416 C 467.387014 -3.940481 475.445556 -12.001395 485.389534 -12.000376 C 495.32772 -11.998988 503.388634 -3.940446 503.387246 5.997741 " stroke="#e97b2c" stroke-width="12" stroke-opacity="1" stroke-miterlimit="4"/><path stroke-linecap="butt" transform="matrix(-0.697929, 0.647309, -0.647309, -0.697929, 136.354586, 139.854669)" fill="none" stroke-linejoin="miter" d="M 0.00120918 1.499948 L 100.886524 1.498938 " stroke="#e97b2c" stroke-width="3" stroke-opacity="1" stroke-miterlimit="4"/><path stroke-linecap="round" transform="matrix(-0.697929, 0.647309, -0.647309, -0.697929, 136.354586, 139.854669)" fill="none" stroke-linejoin="round" d="M 110.634522 1.500907 C 110.635133 3.986503 108.623058 5.999024 106.137462 5.999634 C 103.651866 6.000245 101.636336 3.98538 101.635726 1.499784 C 101.635116 -0.985812 103.649981 -3.001342 106.135577 -3.001952 C 108.624181 -2.999772 110.636702 -0.987698 110.634522 1.500907 " stroke="#e97b2c" stroke-width="3" stroke-opacity="1" stroke-miterlimit="4"/><path fill="#e97b2c" d="M 102.804688 321.269531 L 105.671875 318.765625 L 108.175781 321.636719 L 105.308594 324.140625 M 108.539062 316.261719 L 111.40625 313.757812 L 113.910156 316.625 L 111.042969 319.128906 M 114.273438 311.253906 L 117.144531 308.75 L 119.648438 311.617188 L 116.78125 314.121094 M 120.011719 306.246094 L 122.878906 303.738281 L 125.382812 306.609375 L 122.515625 309.113281 M 125.746094 301.234375 L 128.613281 298.730469 L 131.121094 301.597656 L 128.25 304.101562 M 131.484375 296.226562 L 134.351562 293.722656 L 136.855469 296.589844 L 133.988281 299.09375 M 137.21875 291.21875 L 140.085938 288.710938 L 142.589844 291.582031 L 139.722656 294.085938 M 142.953125 286.207031 L 145.824219 283.703125 L 148.328125 286.570312 L 145.460938 289.078125 M 148.691406 281.199219 L 151.558594 278.695312 L 154.0625 281.5625 L 151.195312 284.066406 M 154.425781 276.191406 L 157.292969 273.6875 L 159.800781 276.554688 L 156.929688 279.058594 M 160.164062 271.179688 L 163.03125 268.675781 L 165.535156 271.542969 L 162.667969 274.050781 M 165.898438 266.171875 L 168.765625 263.667969 L 171.269531 266.535156 L 168.402344 269.039062 M 171.632812 261.164062 L 174.503906 258.660156 L 177.007812 261.527344 L 174.140625 264.03125 M 177.371094 256.15625 L 180.238281 253.648438 L 182.742188 256.519531 L 179.875 259.023438 M 183.105469 251.144531 L 185.972656 248.640625 L 188.480469 251.507812 L 185.609375 254.011719 M 188.84375 246.136719 L 191.710938 243.632812 L 194.214844 246.5 L 191.347656 249.003906 M 194.578125 241.128906 L 197.445312 238.621094 L 199.949219 241.492188 L 197.082031 243.996094 M 200.3125 236.117188 L 203.183594 233.613281 L 205.6875 236.480469 L 202.820312 238.984375 M 206.050781 231.109375 L 208.917969 228.605469 L 211.421875 231.472656 L 208.554688 233.976562 M 211.785156 226.101562 L 214.652344 223.597656 L 217.160156 226.464844 L 214.289062 228.96875 M 217.523438 221.089844 L 220.390625 218.585938 L 222.894531 221.453125 L 220.027344 223.960938 M 223.257812 216.082031 L 226.125 213.578125 L 228.628906 216.445312 L 225.761719 218.949219 M 228.992188 211.074219 L 231.863281 208.570312 L 234.367188 211.4375 L 231.5 213.941406 M 234.730469 206.0625 L 237.597656 203.558594 L 240.101562 206.425781 L 237.234375 208.933594 M 240.464844 201.054688 L 243.332031 198.550781 L 245.839844 201.417969 L 242.96875 203.921875 M 246.203125 196.046875 L 249.070312 193.542969 L 251.574219 196.410156 L 248.707031 198.914062 M 251.9375 191.039062 L 254.804688 188.53125 L 257.308594 191.402344 L 254.441406 193.90625 M 257.675781 186.027344 L 260.542969 183.523438 L 263.046875 186.390625 L 260.179688 188.894531 M 263.410156 181.019531 L 266.277344 178.515625 L 268.78125 181.382812 L 265.914062 183.886719 M 269.144531 176.011719 L 272.015625 173.503906 L 274.519531 176.375 L 271.648438 178.878906 M 274.882812 171 L 277.75 168.496094 L 280.253906 171.363281 L 277.386719 173.871094 M 280.617188 165.992188 L 283.484375 163.488281 L 285.988281 166.355469 L 283.121094 168.859375 M 286.355469 160.984375 L 289.222656 158.480469 L 291.726562 161.347656 L 288.859375 163.851562 M 292.089844 155.972656 L 294.957031 153.46875 L 297.460938 156.335938 L 294.59375 158.84375 M 297.824219 150.964844 L 300.695312 148.460938 L 303.199219 151.328125 L 300.328125 153.832031 M 303.5625 145.957031 L 306.429688 143.453125 L 308.933594 146.320312 L 306.066406 148.824219 M 309.296875 140.945312 L 312.164062 138.441406 L 314.667969 141.3125 L 311.800781 143.816406 M 315.035156 135.9375 L 317.902344 133.433594 L 320.40625 136.300781 L 317.539062 138.804688 M 320.769531 130.929688 L 323.636719 128.425781 L 326.140625 131.292969 L 323.273438 133.796875 M 326.503906 125.921875 L 329.375 123.414062 L 331.878906 126.285156 L 329.011719 128.789062 M 332.242188 120.910156 L 335.109375 118.40625 L 337.613281 121.273438 L 334.746094 123.777344 M 337.976562 115.902344 L 340.84375 113.398438 L 343.351562 116.265625 L 340.480469 118.769531 M 343.714844 110.894531 L 346.582031 108.386719 L 349.085938 111.257812 L 346.21875 113.761719 M 349.449219 105.882812 L 352.316406 103.378906 L 354.820312 106.246094 L 351.953125 108.753906 M 355.183594 100.875 L 358.054688 98.371094 L 360.558594 101.238281 L 357.691406 103.742188 M 360.921875 95.867188 L 363.789062 93.363281 L 366.292969 96.230469 L 363.425781 98.734375 M 366.65625 90.855469 L 369.523438 88.351562 L 372.03125 91.21875 L 369.160156 93.726562 M 372.394531 85.847656 L 375.261719 83.34375 L 377.765625 86.210938 L 374.898438 88.714844 M 378.128906 80.839844 L 380.996094 78.335938 L 383.5 81.203125 L 380.632812 83.707031 M 383.863281 75.828125 L 384.878906 74.945312 L 387.382812 77.8125 L 386.371094 78.699219 " fill-opacity="1" fill-rule="nonzero"/><path fill="#e97b2c" d="M 146.09375 310.398438 L 154.65625 302.835938 L 157.175781 305.691406 L 148.613281 313.253906 M 157.507812 300.316406 L 166.070312 292.753906 L 168.589844 295.609375 L 160.03125 303.171875 M 168.921875 290.234375 L 177.484375 282.671875 L 180.003906 285.523438 L 171.445312 293.085938 M 180.335938 280.148438 L 188.898438 272.585938 L 191.417969 275.441406 L 182.859375 283.003906 M 191.75 270.066406 L 200.3125 262.503906 L 202.832031 265.359375 L 194.273438 272.921875 M 203.167969 259.984375 L 211.726562 252.421875 L 214.246094 255.273438 L 205.6875 262.835938 M 214.582031 249.898438 L 223.140625 242.335938 L 225.664062 245.191406 L 217.101562 252.753906 M 225.996094 239.816406 L 234.554688 232.253906 L 237.078125 235.105469 L 228.515625 242.667969 M 237.410156 229.734375 L 245.96875 222.171875 L 248.492188 225.023438 L 239.929688 232.585938 M 248.824219 219.648438 L 257.386719 212.085938 L 259.90625 214.941406 L 251.34375 222.503906 M 260.238281 209.566406 L 268.800781 202.003906 L 271.320312 204.855469 L 262.757812 212.417969 M 271.652344 199.484375 L 280.214844 191.917969 L 282.734375 194.773438 L 274.175781 202.335938 M 283.066406 189.398438 L 291.628906 181.835938 L 294.148438 184.691406 L 285.589844 192.253906 M 294.480469 179.316406 L 303.042969 171.753906 L 305.5625 174.605469 L 297.003906 182.167969 M 305.894531 169.230469 L 314.457031 161.667969 L 316.976562 164.523438 L 308.417969 172.085938 M 317.3125 159.148438 L 325.871094 151.585938 L 328.390625 154.441406 L 319.832031 162.003906 M 328.726562 149.066406 L 337.285156 141.503906 L 339.808594 144.355469 L 331.246094 151.917969 M 340.140625 138.980469 L 348.699219 131.417969 L 351.222656 134.273438 L 342.660156 141.835938 M 351.554688 128.898438 L 360.113281 121.335938 L 362.636719 124.191406 L 354.074219 131.753906 M 362.96875 118.816406 L 371.53125 111.253906 L 374.050781 114.105469 L 365.488281 121.667969 " fill-opacity="1" fill-rule="nonzero"/><path stroke-linecap="round" transform="matrix(0.713404, -0.630214, 0.630214, 0.713404, 135.392945, 319.853313)" fill-opacity="1" fill="#e97b2c" fill-rule="nonzero" stroke-linejoin="round" d="M 2.001569 2.001161 C 1.999882 -1.313015 4.68555 -3.999894 7.999726 -4.001581 C 11.311184 -4.000193 13.998064 -1.314525 13.999751 1.99965 C 14.001438 5.313826 11.31577 8.000705 7.998519 7.999676 C 4.687061 7.998288 2.000181 5.312619 2.001569 2.001161 " stroke="#e97b2c" stroke-width="4" stroke-opacity="1" stroke-miterlimit="4"/><path stroke-linecap="round" transform="matrix(0.713404, -0.630214, 0.630214, 0.713404, 135.392945, 319.853313)" fill-opacity="1" fill="#e97b2c" fill-rule="nonzero" stroke-linejoin="round" d="M 347.579112 1.999411 C 347.5808 5.313586 344.895132 8.000466 341.577881 7.999436 C 338.266422 7.998048 335.579543 5.31238 335.580931 2.000921 C 335.579243 -1.313254 338.264911 -4.000133 341.579087 -4.001821 C 344.893621 -3.997716 347.5805 -1.312048 347.579112 1.999411 " stroke="#e97b2c" stroke-width="4" stroke-opacity="1" stroke-miterlimit="4"/><g clip-path="url(#b5fb0aebd8)"><path stroke-linecap="butt" transform="matrix(-0.693331, 0.652232, -0.652232, -0.693331, 78.246581, 269.181674)" fill="none" stroke-linejoin="miter" d="M -0.00175156 1.499871 L 92.440429 1.501035 " stroke="#e97b2c" stroke-width="3" stroke-opacity="1" stroke-miterlimit="4"/></g><path stroke-linecap="round" transform="matrix(-0.693331, 0.652232, -0.652232, -0.693331, 78.246581, 269.181674)" fill="none" stroke-linejoin="round" d="M 102.188855 1.499395 C 102.189276 3.984402 100.175142 5.99968 97.690135 6.000101 C 95.205128 6.000523 93.18985 3.986389 93.189429 1.501382 C 93.189007 -0.983625 95.203142 -2.998903 97.688148 -2.999324 C 100.173155 -2.999746 102.188433 -0.985612 102.188855 1.499395 " stroke="#e97b2c" stroke-width="3" stroke-opacity="1" stroke-miterlimit="4"/><path fill="#e97b2c" d="M 61.773438 279.53125 L 64.675781 277.066406 L 67.140625 279.96875 L 64.238281 282.433594 M 67.578125 274.601562 L 70.480469 272.136719 L 72.945312 275.039062 L 70.042969 277.503906 M 73.382812 269.671875 L 76.285156 267.207031 L 78.75 270.109375 L 75.847656 272.574219 M 79.1875 264.746094 L 82.089844 262.28125 L 84.554688 265.183594 L 81.652344 267.648438 M 84.992188 259.816406 L 87.894531 257.351562 L 90.359375 260.253906 L 87.457031 262.71875 M 90.796875 254.886719 L 93.699219 252.421875 L 96.164062 255.324219 L 93.261719 257.789062 M 96.601562 249.957031 L 99.503906 247.492188 L 101.96875 250.394531 L 99.066406 252.859375 M 102.40625 245.027344 L 105.308594 242.5625 L 107.773438 245.46875 L 104.871094 247.929688 M 108.214844 240.101562 L 111.117188 237.636719 L 113.578125 240.539062 L 110.675781 243.003906 M 114.019531 235.171875 L 116.921875 232.707031 L 119.386719 235.609375 L 116.480469 238.074219 M 119.824219 230.242188 L 122.726562 227.777344 L 125.191406 230.679688 L 122.289062 233.144531 M 125.628906 225.3125 L 128.53125 222.847656 L 130.996094 225.75 L 128.09375 228.214844 M 131.433594 220.382812 L 134.335938 217.921875 L 136.800781 220.824219 L 133.898438 223.285156 M 137.238281 215.457031 L 140.140625 212.992188 L 142.605469 215.894531 L 139.703125 218.359375 M 143.042969 210.527344 L 145.945312 208.0625 L 148.410156 210.964844 L 145.507812 213.429688 M 148.847656 205.597656 L 151.75 203.132812 L 154.214844 206.035156 L 151.3125 208.5 M 154.652344 200.667969 L 157.554688 198.203125 L 160.019531 201.105469 L 157.117188 203.570312 M 160.457031 195.738281 L 163.359375 193.277344 L 165.824219 196.179688 L 162.921875 198.644531 M 166.261719 190.8125 L 169.164062 188.347656 L 171.628906 191.25 L 168.726562 193.714844 M 172.066406 185.882812 L 174.96875 183.417969 L 177.433594 186.320312 L 174.53125 188.785156 M 177.871094 180.953125 L 180.773438 178.488281 L 183.238281 181.390625 L 180.335938 183.855469 M 183.675781 176.023438 L 186.578125 173.558594 L 189.042969 176.460938 L 186.140625 178.925781 M 189.480469 171.097656 L 192.386719 168.632812 L 194.847656 171.535156 L 191.945312 174 M 195.289062 166.167969 L 198.191406 163.703125 L 200.652344 166.605469 L 197.75 169.070312 M 201.09375 161.238281 L 203.996094 158.773438 L 206.460938 161.675781 L 203.558594 164.140625 M 206.898438 156.308594 L 209.800781 153.84375 L 212.265625 156.746094 L 209.363281 159.210938 M 212.703125 151.378906 L 215.605469 148.914062 L 218.070312 151.816406 L 215.167969 154.28125 M 218.507812 146.453125 L 221.410156 143.988281 L 223.875 146.890625 L 220.972656 149.355469 M 224.3125 141.523438 L 227.214844 139.058594 L 229.679688 141.960938 L 226.777344 144.425781 M 230.117188 136.59375 L 233.019531 134.128906 L 235.484375 137.03125 L 232.582031 139.496094 M 235.921875 131.664062 L 238.824219 129.199219 L 241.289062 132.101562 L 238.386719 134.566406 M 241.726562 126.734375 L 244.628906 124.269531 L 247.09375 127.175781 L 244.191406 129.636719 M 247.53125 121.808594 L 250.433594 119.34375 L 252.898438 122.246094 L 249.996094 124.710938 M 253.335938 116.878906 L 256.238281 114.414062 L 258.703125 117.316406 L 255.800781 119.78125 M 259.140625 111.949219 L 262.042969 109.484375 L 264.507812 112.386719 L 261.605469 114.851562 M 264.945312 107.019531 L 267.847656 104.554688 L 270.3125 107.457031 L 267.410156 109.921875 M 270.75 102.089844 L 273.652344 99.628906 L 276.117188 102.53125 L 273.214844 104.992188 M 276.558594 97.164062 L 279.460938 94.699219 L 281.921875 97.601562 L 279.019531 100.066406 M 282.363281 92.234375 L 285.265625 89.769531 L 287.730469 92.671875 L 284.824219 95.136719 M 288.167969 87.304688 L 291.070312 84.839844 L 293.535156 87.742188 L 290.632812 90.207031 M 293.972656 82.375 L 296.875 79.910156 L 299.339844 82.8125 L 296.4375 85.277344 M 299.777344 77.445312 L 302.679688 74.984375 L 305.144531 77.886719 L 302.242188 80.351562 M 305.582031 72.519531 L 308.484375 70.054688 L 310.949219 72.957031 L 308.046875 75.421875 M 311.386719 67.589844 L 314.289062 65.125 L 316.753906 68.027344 L 313.851562 70.492188 M 317.191406 62.660156 L 320.09375 60.195312 L 322.558594 63.097656 L 319.65625 65.5625 M 322.996094 57.730469 L 325.898438 55.265625 L 328.363281 58.167969 L 325.460938 60.632812 M 328.800781 52.804688 L 331.703125 50.339844 L 334.167969 53.242188 L 331.265625 55.707031 M 334.605469 47.875 L 337.507812 45.410156 L 339.972656 48.3125 L 337.070312 50.777344 M 340.410156 42.945312 L 343.3125 40.480469 L 345.777344 43.382812 L 342.875 45.847656 M 346.214844 38.015625 L 349.117188 35.550781 L 351.582031 38.453125 L 348.679688 40.917969 M 352.019531 33.085938 L 354.921875 30.621094 L 357.386719 33.523438 L 354.484375 35.988281 M 357.824219 28.160156 L 360.730469 25.695312 L 363.191406 28.597656 L 360.289062 31.0625 M 363.632812 23.230469 L 366.535156 20.765625 L 368.996094 23.667969 L 366.09375 26.132812 M 369.4375 18.300781 L 372.339844 15.835938 L 374.804688 18.738281 L 371.902344 21.203125 " fill-opacity="1" fill-rule="nonzero"/><path stroke-linecap="round" transform="matrix(0.72562, -0.616109, 0.616109, 0.72562, 61.773301, 279.53097)" fill-opacity="1" fill="#e97b2c" fill-rule="nonzero" stroke-linejoin="round" d="M 443.190094 2.001326 C 443.192646 5.314241 440.503382 7.999654 437.190467 8.002206 C 433.87708 7.998973 431.189011 5.312837 431.192243 1.99945 C 431.189692 -1.313464 433.875828 -4.001534 437.191871 -4.001429 C 440.505257 -3.998197 443.190199 -1.314717 443.190094 2.001326 " stroke="#e97b2c" stroke-width="4" stroke-opacity="1" stroke-miterlimit="4"/><g fill="#000000" fill-opacity="1"><g transform="translate(57.129806, 281.398382)"><g><path d="M 113.015625 -65.21875 C 113.015625 -57.96875 111.835938 -51.046875 109.484375 -44.453125 C 107.128906 -37.867188 103.832031 -31.800781 99.59375 -26.25 C 95.363281 -20.707031 90.390625 -15.90625 84.671875 -11.84375 C 78.953125 -7.789062 72.726562 -4.628906 66 -2.359375 C 59.28125 -0.0859375 52.296875 1.046875 45.046875 1.046875 L 2.21875 1.046875 L 2.21875 -22.125 L 45.046875 -22.125 C 51.160156 -22.125 56.898438 -23.257812 62.265625 -25.53125 C 67.640625 -27.800781 72.378906 -30.941406 76.484375 -34.953125 C 80.585938 -38.972656 83.796875 -43.644531 86.109375 -48.96875 C 88.421875 -54.300781 89.578125 -60.023438 89.578125 -66.140625 L 89.578125 -168.40625 L 46.484375 -168.40625 L 46.484375 -191.859375 L 113.015625 -191.859375 Z M 62.859375 -142.75 L 46.484375 -142.75 L 46.484375 -165.921875 L 86.5625 -165.921875 L 86.5625 -66.140625 C 86.5625 -60.460938 85.46875 -55.132812 83.28125 -50.15625 C 81.101562 -45.175781 78.113281 -40.785156 74.3125 -36.984375 C 70.519531 -33.191406 66.113281 -30.222656 61.09375 -28.078125 C 56.070312 -25.941406 50.722656 -24.875 45.046875 -24.875 L 2.21875 -24.875 L 2.21875 -48.0625 L 45.046875 -48.0625 C 48.367188 -48.0625 51.359375 -48.910156 54.015625 -50.609375 C 56.679688 -52.316406 58.820312 -54.546875 60.4375 -57.296875 C 62.050781 -60.046875 62.859375 -62.992188 62.859375 -66.140625 Z M 62.859375 -142.75 "/></g></g></g><g fill="#000000" fill-opacity="1"><g transform="translate(181.668985, 281.398382)"><g><path d="M 154 -131.875 C 154 -126.375 153.28125 -121.046875 151.84375 -115.890625 C 150.40625 -110.742188 148.375 -105.898438 145.75 -101.359375 C 150.726562 -96.035156 154.632812 -89.835938 157.46875 -82.765625 C 160.3125 -75.691406 161.734375 -68.226562 161.734375 -60.375 C 161.734375 -52.082031 160.179688 -44.289062 157.078125 -37 C 153.984375 -29.707031 149.707031 -23.285156 144.25 -17.734375 C 138.789062 -12.191406 132.457031 -7.867188 125.25 -4.765625 C 118.050781 -1.671875 110.304688 -0.125 102.015625 -0.125 L 4.0625 -0.125 L 4.0625 -192.109375 L 94.03125 -192.109375 C 102.320312 -192.109375 110.066406 -190.554688 117.265625 -187.453125 C 124.472656 -184.359375 130.847656 -180.039062 136.390625 -174.5 C 141.929688 -168.957031 146.25 -162.5625 149.34375 -155.3125 C 152.445312 -148.070312 154 -140.257812 154 -131.875 Z M 26.84375 -169.328125 L 26.84375 -22.921875 L 101.5 -22.921875 C 106.5625 -22.921875 111.335938 -23.898438 115.828125 -25.859375 C 120.328125 -27.828125 124.300781 -30.535156 127.75 -33.984375 C 131.195312 -37.429688 133.898438 -41.398438 135.859375 -45.890625 C 137.828125 -50.390625 138.8125 -55.21875 138.8125 -60.375 C 138.8125 -65 138.003906 -69.40625 136.390625 -73.59375 C 134.773438 -77.789062 132.503906 -81.566406 129.578125 -84.921875 C 126.660156 -88.285156 123.257812 -90.972656 119.375 -92.984375 C 115.488281 -94.992188 111.273438 -96.128906 106.734375 -96.390625 L 106.734375 -97.296875 C 110.398438 -98.171875 113.71875 -99.804688 116.6875 -102.203125 C 119.65625 -104.609375 122.226562 -107.488281 124.40625 -110.84375 C 126.59375 -114.207031 128.273438 -117.703125 129.453125 -121.328125 C 130.628906 -124.953125 131.21875 -128.46875 131.21875 -131.875 C 131.21875 -137.113281 130.234375 -142.003906 128.265625 -146.546875 C 126.304688 -151.085938 123.578125 -155.054688 120.078125 -158.453125 C 116.585938 -161.859375 112.59375 -164.519531 108.09375 -166.4375 C 103.601562 -168.363281 98.828125 -169.328125 93.765625 -169.328125 Z M 29.859375 -97.5625 L 94.03125 -97.5625 C 98.738281 -97.5625 103.164062 -98.457031 107.3125 -100.25 C 111.46875 -102.039062 115.132812 -104.53125 118.3125 -107.71875 C 121.5 -110.90625 123.988281 -114.546875 125.78125 -118.640625 C 127.570312 -122.742188 128.46875 -127.15625 128.46875 -131.875 C 128.46875 -136.675781 127.550781 -141.171875 125.71875 -145.359375 C 123.882812 -149.554688 121.375 -153.242188 118.1875 -156.421875 C 115 -159.609375 111.3125 -162.078125 107.125 -163.828125 C 102.9375 -165.578125 98.484375 -166.40625 93.765625 -166.3125 L 29.859375 -166.3125 Z M 105.03125 -132.140625 C 105.03125 -128.992188 103.9375 -126.285156 101.75 -124.015625 C 99.570312 -121.742188 96.910156 -120.609375 93.765625 -120.609375 L 51.328125 -120.609375 L 51.328125 -143.53125 L 93.765625 -143.53125 C 96.910156 -143.53125 99.570312 -142.4375 101.75 -140.25 C 103.9375 -138.070312 105.03125 -135.367188 105.03125 -132.140625 Z M 29.859375 -94.8125 L 29.859375 -25.9375 L 101.5 -25.9375 C 106.300781 -25.9375 110.816406 -26.828125 115.046875 -28.609375 C 119.285156 -30.398438 122.992188 -32.867188 126.171875 -36.015625 C 129.359375 -39.160156 131.867188 -42.828125 133.703125 -47.015625 C 135.535156 -51.203125 136.453125 -55.65625 136.453125 -60.375 C 136.453125 -65.082031 135.535156 -69.53125 133.703125 -73.71875 C 131.867188 -77.914062 129.359375 -81.582031 126.171875 -84.71875 C 122.992188 -87.863281 119.285156 -90.332031 115.046875 -92.125 C 110.816406 -93.914062 106.300781 -94.8125 101.5 -94.8125 Z M 113.28125 -60.375 C 113.28125 -57.226562 112.1875 -54.519531 110 -52.25 C 107.820312 -49.976562 105.160156 -48.84375 102.015625 -48.84375 L 51.328125 -48.84375 L 51.328125 -71.890625 L 102.015625 -71.890625 C 105.160156 -71.890625 107.820312 -70.753906 110 -68.484375 C 112.1875 -66.222656 113.28125 -63.519531 113.28125 -60.375 Z M 113.28125 -60.375 "/></g></g><g transform="translate(350.602257, 281.398382)"><g><path d="M 101.890625 -95.59375 L 101.890625 -119.5625 L 197.21875 -119.5625 L 197.21875 -92.984375 C 197.21875 -78.835938 194.925781 -65.976562 190.34375 -54.40625 C 185.757812 -42.84375 179.253906 -32.847656 170.828125 -24.421875 C 162.410156 -15.992188 152.394531 -9.507812 140.78125 -4.96875 C 129.164062 -0.4375 116.285156 1.828125 102.140625 1.828125 C 91.410156 1.828125 81.175781 0.191406 71.4375 -3.078125 C 61.707031 -6.347656 52.78125 -10.992188 44.65625 -17.015625 C 36.539062 -23.046875 29.488281 -30.117188 23.5 -38.234375 C 17.519531 -46.359375 12.894531 -55.304688 9.625 -65.078125 C 6.351562 -74.859375 4.71875 -85.117188 4.71875 -95.859375 C 4.71875 -106.679688 6.351562 -116.957031 9.625 -126.6875 C 12.894531 -136.425781 17.519531 -145.378906 23.5 -153.546875 C 29.488281 -161.710938 36.539062 -168.804688 44.65625 -174.828125 C 52.78125 -180.847656 61.726562 -185.492188 71.5 -188.765625 C 81.28125 -192.046875 91.582031 -193.6875 102.40625 -193.6875 C 112.101562 -193.6875 121.335938 -192.332031 130.109375 -189.625 C 138.878906 -186.914062 147.109375 -183.207031 154.796875 -178.5 L 143 -158.0625 C 137.332031 -161.726562 131.023438 -164.628906 124.078125 -166.765625 C 117.140625 -168.910156 109.914062 -169.984375 102.40625 -169.984375 C 92.101562 -169.984375 82.476562 -168.0625 73.53125 -164.21875 C 64.582031 -160.375 56.722656 -155.046875 49.953125 -148.234375 C 43.191406 -141.429688 37.910156 -133.554688 34.109375 -124.609375 C 30.316406 -115.660156 28.421875 -106.078125 28.421875 -95.859375 C 28.421875 -85.648438 30.316406 -76.09375 34.109375 -67.1875 C 37.910156 -58.28125 43.148438 -50.441406 49.828125 -43.671875 C 56.503906 -36.910156 64.296875 -31.609375 73.203125 -27.765625 C 82.109375 -23.921875 91.671875 -21.957031 101.890625 -21.875 C 109.921875 -21.78125 117.644531 -22.957031 125.0625 -25.40625 C 132.488281 -27.851562 139.300781 -31.320312 145.5 -35.8125 C 151.695312 -40.3125 157.109375 -45.660156 161.734375 -51.859375 C 166.359375 -58.054688 169.957031 -64.84375 172.53125 -72.21875 C 175.113281 -79.601562 176.445312 -87.394531 176.53125 -95.59375 Z M 102.40625 -166.96875 C 109.65625 -166.96875 116.617188 -165.941406 123.296875 -163.890625 C 129.972656 -161.835938 136.109375 -158.976562 141.703125 -155.3125 L 130.296875 -134.625 C 126.285156 -137.332031 121.898438 -139.492188 117.140625 -141.109375 C 112.378906 -142.722656 107.46875 -143.53125 102.40625 -143.53125 C 95.863281 -143.53125 89.6875 -142.304688 83.875 -139.859375 C 78.070312 -137.421875 72.988281 -134.015625 68.625 -129.640625 C 64.257812 -125.273438 60.832031 -120.210938 58.34375 -114.453125 C 55.851562 -108.691406 54.609375 -102.492188 54.609375 -95.859375 C 54.609375 -89.316406 55.828125 -83.160156 58.265625 -77.390625 C 60.710938 -71.628906 64.117188 -66.566406 68.484375 -62.203125 C 72.859375 -57.835938 77.925781 -54.410156 83.6875 -51.921875 C 89.445312 -49.429688 95.597656 -48.144531 102.140625 -48.0625 C 110.085938 -48.0625 117.617188 -49.957031 124.734375 -53.75 C 131.847656 -57.550781 137.585938 -62.726562 141.953125 -69.28125 L 101.890625 -69.28125 L 101.890625 -92.984375 L 173.515625 -92.984375 C 173.171875 -83.554688 171.03125 -74.691406 167.09375 -66.390625 C 163.164062 -58.097656 157.925781 -50.832031 151.375 -44.59375 C 144.832031 -38.351562 137.328125 -33.460938 128.859375 -29.921875 C 120.390625 -26.390625 111.398438 -24.625 101.890625 -24.625 C 92.109375 -24.707031 82.9375 -26.601562 74.375 -30.3125 C 65.820312 -34.019531 58.316406 -39.125 51.859375 -45.625 C 45.398438 -52.132812 40.335938 -59.6875 36.671875 -68.28125 C 33.003906 -76.882812 31.171875 -86.078125 31.171875 -95.859375 C 31.171875 -105.722656 33.003906 -114.953125 36.671875 -123.546875 C 40.335938 -132.148438 45.441406 -139.703125 51.984375 -146.203125 C 58.535156 -152.710938 66.109375 -157.800781 74.703125 -161.46875 C 83.304688 -165.132812 92.539062 -166.96875 102.40625 -166.96875 Z M 102.40625 -166.96875 "/></g></g></g><path stroke-linecap="butt" transform="matrix(0.719968, -0.622704, 0.622704, 0.719968, 186.1581, 304.44474)" fill="none" stroke-linejoin="miter" d="M 15.000864 1.999158 L 97.503035 1.998389 " stroke="#e97b2c" stroke-width="4" stroke-opacity="1" stroke-miterlimit="4"/><path stroke-linecap="round" transform="matrix(0.719968, -0.622704, 0.622704, 0.719968, 186.1581, 304.44474)" fill="none" stroke-linejoin="round" d="M 1.99931 2.001289 C 2.000729 -1.312519 4.68645 -3.997443 7.999838 -4.001812 C 11.313645 -4.000393 13.99857 -1.314673 14.000254 2.001819 C 14.00152 5.312523 11.313115 8.000551 7.999308 7.999132 C 4.688604 8.000397 2.000576 5.311992 1.99931 2.001289 " stroke="#e97b2c" stroke-width="4" stroke-opacity="1" stroke-miterlimit="4"/><path stroke-linecap="round" transform="matrix(0.719968, -0.622704, 0.622704, 0.719968, 186.1581, 304.44474)" fill-opacity="1" fill="#e97b2c" fill-rule="nonzero" stroke-linejoin="round" d="M 110.501904 1.999362 C 110.500485 5.31317 107.814765 7.998094 104.504061 7.999359 C 101.187569 8.001044 98.502645 5.315324 98.50096 1.998832 C 98.502379 -1.314976 101.188099 -3.9999 104.501907 -3.998481 C 107.815295 -4.00285 110.503323 -1.314445 110.501904 1.999362 " stroke="#e97b2c" stroke-width="4" stroke-opacity="1" stroke-miterlimit="4"/><path stroke-linecap="butt" transform="matrix(-0.713006, 0.630663, -0.630663, -0.713006, 387.296135, 131.728653)" fill="none" stroke-linejoin="miter" d="M 14.999291 2.000596 L 80.590305 1.998721 " stroke="#e97b2c" stroke-width="4" stroke-opacity="1" stroke-miterlimit="4"/><path stroke-linecap="round" transform="matrix(-0.713006, 0.630663, -0.630663, -0.713006, 387.296135, 131.728653)" fill="none" stroke-linejoin="round" d="M 1.998523 2.000751 C 1.998924 -1.313425 4.686285 -3.998611 8.000461 -3.998211 C 11.311563 -4.000529 14.002542 -1.313523 14.002142 2.000653 C 14.001741 5.314829 11.31438 8.000016 8.000204 7.999615 C 4.686028 7.999214 2.000841 5.311854 1.998523 2.000751 " stroke="#e97b2c" stroke-width="4" stroke-opacity="1" stroke-miterlimit="4"/><path stroke-linecap="butt" transform="matrix(0.764513, -0.567128, 0.567128, 0.764513, 395.80348, 91.635561)" fill="none" stroke-linejoin="miter" d="M 15.001577 1.999314 L 54.54965 1.99817 " stroke="#e97b2c" stroke-width="4" stroke-opacity="1" stroke-miterlimit="4"/><path stroke-linecap="round" transform="matrix(0.764513, -0.567128, 0.567128, 0.764513, 395.80348, 91.635561)" fill="none" stroke-linejoin="round" d="M 1.997807 1.999575 C 1.999251 -1.315394 4.686994 -4.00185 8.001962 -4.000405 C 11.313634 -4.001406 14.000091 -1.313663 13.998646 2.001305 C 13.999646 5.312977 11.311904 7.999434 8.000232 8.000434 C 4.685263 7.998989 2.002103 5.313692 1.997807 1.999575 " stroke="#e97b2c" stroke-width="4" stroke-opacity="1" stroke-miterlimit="4"/><path stroke-linecap="round" transform="matrix(0.764513, -0.567128, 0.567128, 0.764513, 395.80348, 91.635561)" fill-opacity="1" fill="#e97b2c" fill-rule="nonzero" stroke-linejoin="round" d="M 67.54768 1.99876 C 67.549531 5.316173 64.864234 7.999334 61.549266 7.997889 C 58.235149 8.002185 55.548692 5.314443 55.550137 1.999475 C 55.549137 -1.312198 58.233583 -4.001099 61.548551 -3.999654 C 64.863519 -3.99821 67.54668 -1.312912 67.54768 1.99876 " stroke="#e97b2c" stroke-width="4" stroke-opacity="1" stroke-miterlimit="4"/></g></g></svg>